<svg width="89" height="89" viewBox="0 0 89 89" fill="none" xmlns="http://www.w3.org/2000/svg">
<path fill-rule="evenodd" clip-rule="evenodd" d="M83.5652 24.9956C82.7623 23.3624 81.8612 21.7861 80.8695 20.2746V68.5145C81.8612 67.0029 82.7623 65.4267 83.5652 63.7934V24.9956ZM85.3623 59.5988C87.106 54.86 88.058 49.7385 88.058 44.3945C88.058 39.0506 87.106 33.9291 85.3623 29.1902V59.5988ZM76.3768 14.5249C77.3247 15.551 78.2245 16.6223 79.0724 17.7352V71.0539C78.2245 72.1668 77.3247 73.2381 76.3768 74.2642V14.5249ZM74.5797 12.6894C73.7144 11.8554 72.8151 11.0566 71.884 10.2951V78.494C72.8151 77.7325 73.7144 76.9336 74.5797 76.0997V12.6894ZM67.3912 7.06794C68.3133 7.64626 69.2124 8.25781 70.0869 8.9009V79.8882C69.2124 80.5313 68.3133 81.1428 67.3912 81.7211V7.06794ZM65.5941 5.99939C64.7139 5.50393 63.8149 5.03786 62.8985 4.60252V84.1866C63.8149 83.7512 64.7139 83.2852 65.5941 82.7897V5.99939ZM58.4057 2.76618C59.3182 3.08127 60.2172 3.42552 61.1014 3.79782V84.9913C60.2172 85.3636 59.3182 85.7078 58.4057 86.0229V2.76618ZM56.6086 2.18879C55.7215 1.92476 54.8226 1.68794 53.913 1.4793V87.3098C54.8226 87.1011 55.7215 86.8643 56.6086 86.6003V2.18879ZM49.4202 0.692295C50.3276 0.803074 51.2264 0.941456 52.1159 1.10658V87.6825C51.2264 87.8476 50.3276 87.986 49.4202 88.0968V0.692295ZM47.6231 0.510108C46.7318 0.4381 45.833 0.392637 44.9275 0.374512V88.4146C45.833 88.3964 46.7318 88.351 47.6231 88.279V0.510108ZM40.4347 0.510126C41.326 0.438113 42.2248 0.392646 43.1304 0.374516V88.4146C42.2248 88.3964 41.326 88.351 40.4347 88.279V0.510126ZM38.6376 0.692321C37.7302 0.803105 36.8314 0.941491 35.9419 1.10662V87.6825C36.8314 87.8476 37.7302 87.986 38.6376 88.0968V0.692321ZM31.4492 2.18886C32.3363 1.92482 33.2352 1.688 34.1448 1.47935V87.3097C33.2352 87.1011 32.3363 86.8643 31.4492 86.6002V2.18886ZM29.6521 2.76626C28.7396 3.08135 27.8406 3.42561 26.9564 3.79791V84.9912C27.8406 85.3635 28.7396 85.7077 29.6521 86.0228V2.76626ZM22.4637 5.99951C23.3439 5.50404 24.2429 5.03797 25.1593 4.60262V84.1865C24.2429 83.7511 23.3439 83.285 22.4637 82.7896V5.99951ZM20.6666 7.06807C19.7445 7.64641 18.8454 8.25796 17.9709 8.90105V79.888C18.8454 80.5311 19.7445 81.1427 20.6666 81.721V7.06807ZM13.4782 12.6896C14.3434 11.8556 15.2427 11.0568 16.1738 10.2953V78.4938C15.2427 77.7323 14.3434 76.9334 13.4782 76.0995V12.6896ZM11.6811 14.5251C10.7331 15.5512 9.83335 16.6225 8.9854 17.7355V71.0536C9.83335 72.1665 10.7331 73.2379 11.6811 74.264V14.5251ZM4.49276 24.9959C5.29562 23.3626 6.1967 21.7864 7.1883 20.2749V68.5142C6.1967 67.0026 5.29562 65.4264 4.49276 63.7932V24.9959ZM2.69565 29.1905C0.952 33.9293 0 39.0507 0 44.3945C0 49.7383 0.952 54.8598 2.69565 59.5985V29.1905Z" fill="#2D3963" fill-opacity="0.25"/>
</svg>
