<svg width="196" height="197" viewBox="0 0 196 197" fill="none" xmlns="http://www.w3.org/2000/svg">
<path fill-rule="evenodd" clip-rule="evenodd" d="M186 55.1768C184.213 51.5415 182.207 48.033 180 44.6686V152.04C182.207 148.676 184.213 145.168 186 141.532V55.1768ZM190 132.196C193.881 121.648 196 110.249 196 98.3545C196 86.4603 193.881 75.0609 190 64.5134V132.196ZM170 31.8707C172.11 34.1546 174.113 36.5392 176 39.0163V157.693C174.113 160.17 172.11 162.554 170 164.838V31.8707ZM166 27.7853C164.074 25.929 162.072 24.1509 160 22.456V174.253C162.072 172.558 164.074 170.78 166 168.924V27.7853ZM150 15.2729C152.052 16.5602 154.054 17.9214 156 19.3528V177.356C154.054 178.788 152.052 180.149 150 181.436V15.2729ZM146 12.8945C144.041 11.7917 142.04 10.7543 140 9.78535V186.924C142.04 185.955 144.041 184.917 146 183.814V12.8945ZM130 5.69799C132.031 6.39932 134.032 7.16556 136 7.99422V188.715C134.032 189.543 132.031 190.31 130 191.011V5.69799ZM126 4.41281C124.025 3.82513 122.025 3.29801 120 2.83361V193.875C122.025 193.411 124.025 192.884 126 192.296V4.41281ZM110 1.08186C112.02 1.32844 114.02 1.63645 116 2.00398V194.705C114.02 195.073 112.02 195.381 110 195.627V1.08186ZM106 0.676338C104.016 0.516056 102.016 0.41486 100 0.374512V196.335C102.016 196.294 104.016 196.193 106 196.033V0.676338ZM90 0.676338C91.9839 0.516056 93.9845 0.41486 96 0.374512V196.335C93.9845 196.294 91.9839 196.193 90 196.033V0.676338ZM86 1.08186C83.9804 1.32844 81.9797 1.63645 80 2.00398V194.705C81.9797 195.073 83.9804 195.381 86 195.627V1.08186ZM70 4.41281C71.9746 3.82513 73.9754 3.29801 76 2.83361V193.875C73.9754 193.411 71.9746 192.884 70 192.296V4.41281ZM66 5.69798C63.9689 6.39932 61.9681 7.16555 60 7.99421V188.715C61.9681 189.543 63.9689 190.31 66 191.011V5.69798ZM50 12.8945C51.9592 11.7917 53.9602 10.7543 56 9.78535V186.924C53.9602 185.955 51.9592 184.917 50 183.814V12.8945ZM46 15.2729C43.9477 16.5602 41.9464 17.9214 40 19.3527V177.356C41.9464 178.788 43.9477 180.149 46 181.436V15.2729ZM30 27.7852C31.9259 25.929 33.9276 24.1509 36 22.456V174.253C33.9276 172.558 31.9259 170.78 30 168.924V27.7852ZM26 31.8707C23.89 34.1546 21.8874 36.5392 20 39.0163V157.693C21.8874 160.17 23.89 162.554 26 164.838V31.8707ZM10 55.1768C11.7871 51.5415 13.7928 48.033 16 44.6686V152.04C13.7928 148.676 11.7871 145.168 10 141.532V55.1768ZM6 64.5134C2.11897 75.0609 0 86.4603 0 98.3545C0 110.249 2.11897 121.648 6 132.196V64.5134Z" fill="#E4E8EB"/>
</svg>
